M48
; DRILL file {KiCad (6.0.2)} date Sat 12 Mar 2022 10:34:26 AM EST
; FORMAT={-:-/ absolute / inch / decimal}
; #@! TF.CreationDate,2022-03-12T10:34:26-05:00
; #@! TF.GenerationSoftware,Kicad,Pcbnew,(6.0.2)
; #@! TF.FileFunction,Plated,1,2,PTH
FMAT,2
INCH
; #@! TA.AperFunction,Plated,PTH,ViaDrill
T1C0.0157
; #@! TA.AperFunction,Plated,PTH,ComponentDrill
T2C0.0315
; #@! TA.AperFunction,Plated,PTH,ComponentDrill
T3C0.0394
; #@! TA.AperFunction,Plated,PTH,ComponentDrill
T4C0.0433
; #@! TA.AperFunction,Plated,PTH,ComponentDrill
T5C0.0591
%
G90
G05
T1
X1.875Y-5.675
X2.025Y-2.575
X2.925Y-2.375
X2.925Y-2.775
X4.075Y-2.975
X4.275Y-2.375
X4.275Y-2.625
X4.475Y-2.275
T2
X2.775Y-6.0618
X3.075Y-6.0618
X3.8Y-6.0618
X4.1Y-6.0618
X4.85Y-6.0618
X5.15Y-6.0618
T3
X1.8896Y-1.5766
X1.8896Y-1.7734
X2.4604Y-1.5766
X2.4604Y-1.675
X2.4604Y-1.7734
T4
X2.125Y-3.3488
X2.125Y-3.7488
X2.125Y-4.2988
X2.125Y-4.6988
X2.125Y-5.2988
X2.125Y-5.6988
X3.175Y-4.2988
X3.175Y-4.6988
X3.175Y-5.2988
X3.175Y-5.6988
X3.225Y-3.3488
X3.225Y-3.7488
X4.225Y-3.3488
X4.225Y-3.7488
X4.225Y-4.2988
X4.225Y-4.6988
X4.225Y-5.2988
X4.225Y-5.6988
T5
X2.525Y-3.325
X2.525Y-4.275
X2.525Y-5.275
X2.775Y-3.225
X2.775Y-4.175
X2.775Y-5.175
X3.575Y-3.325
X3.575Y-4.275
X3.575Y-5.275
X3.825Y-3.225
X3.825Y-4.175
X3.825Y-5.175
X4.575Y-3.325
X4.575Y-4.275
X4.575Y-5.275
X4.825Y-3.225
X4.825Y-4.175
X4.825Y-5.175
T5
G00X2.1907Y-1.4545
M15
G01X2.1396Y-1.4545
M16
G05
G00X2.1907Y-1.8955
M15
G01X2.1396Y-1.8955
M16
G05
T0
M30
