%TF.GenerationSoftware,KiCad,Pcbnew,(6.0.2)*%
%TF.CreationDate,2022-03-12T10:34:22-05:00*%
%TF.ProjectId,macropad,6d616372-6f70-4616-942e-6b696361645f,v0*%
%TF.SameCoordinates,Original*%
%TF.FileFunction,Soldermask,Top*%
%TF.FilePolarity,Negative*%
%FSLAX46Y46*%
G04 Gerber Fmt 4.6, Leading zero omitted, Abs format (unit mm)*
G04 Created by KiCad (PCBNEW (6.0.2)) date 2022-03-12 10:34:22*
%MOMM*%
%LPD*%
G01*
G04 APERTURE LIST*
%ADD10C,2.500000*%
%ADD11R,2.200000X2.200000*%
%ADD12O,2.200000X2.200000*%
%ADD13C,1.700000*%
%ADD14C,4.000000*%
%ADD15C,2.200000*%
%ADD16C,1.600000*%
%ADD17O,1.600000X1.600000*%
%ADD18R,2.000000X2.000000*%
%ADD19C,2.000000*%
%ADD20R,3.200000X2.000000*%
%ADD21R,3.000000X1.610000*%
G04 APERTURE END LIST*
D10*
%TO.C,REF\u002A\u002A*%
X138430000Y-158750000D03*
%TD*%
%TO.C,REF\u002A\u002A*%
X43180000Y-158750000D03*
%TD*%
%TO.C,REF\u002A\u002A*%
X45720000Y-27940000D03*
%TD*%
%TO.C,REF\u002A\u002A*%
X138430000Y-29210000D03*
%TD*%
D11*
%TO.C,D6*%
X80645000Y-144750000D03*
D12*
X80645000Y-134590000D03*
%TD*%
D13*
%TO.C,SW4*%
X62865000Y-136525000D03*
D14*
X67945000Y-136525000D03*
D13*
X73025000Y-136525000D03*
D15*
X70485000Y-131445000D03*
X64135000Y-133985000D03*
%TD*%
D13*
%TO.C,SW7*%
X89535000Y-136525000D03*
X99695000Y-136525000D03*
D14*
X94615000Y-136525000D03*
D15*
X97155000Y-131445000D03*
X90805000Y-133985000D03*
%TD*%
D11*
%TO.C,D8*%
X107315000Y-119350000D03*
D12*
X107315000Y-109190000D03*
%TD*%
D16*
%TO.C,R1*%
X70485000Y-153969453D03*
D17*
X78105000Y-153969453D03*
%TD*%
D11*
%TO.C,D1*%
X53975000Y-95220000D03*
D12*
X53975000Y-85060000D03*
%TD*%
D13*
%TO.C,SW8*%
X125095000Y-86995000D03*
D14*
X120015000Y-86995000D03*
D13*
X114935000Y-86995000D03*
D15*
X122555000Y-81915000D03*
X116205000Y-84455000D03*
%TD*%
D11*
%TO.C,D4*%
X81915000Y-95220000D03*
D12*
X81915000Y-85060000D03*
%TD*%
D18*
%TO.C,SW1*%
X62495000Y-45045000D03*
D19*
X62495000Y-40045000D03*
X62495000Y-42545000D03*
D20*
X54995000Y-36945000D03*
X54995000Y-48145000D03*
D19*
X47995000Y-40045000D03*
X47995000Y-45045000D03*
%TD*%
D11*
%TO.C,D5*%
X80645000Y-119350000D03*
D12*
X80645000Y-109190000D03*
%TD*%
D11*
%TO.C,D7*%
X107315000Y-95220000D03*
D12*
X107315000Y-85060000D03*
%TD*%
D16*
%TO.C,R2*%
X96520000Y-153969453D03*
D17*
X104140000Y-153969453D03*
%TD*%
D11*
%TO.C,D9*%
X107315000Y-144750000D03*
D12*
X107315000Y-134590000D03*
%TD*%
D21*
%TO.C,U1*%
X80060800Y-25200000D03*
X80060800Y-27694547D03*
X80060800Y-30189094D03*
X80060800Y-32683641D03*
X80060800Y-35178188D03*
X80060800Y-37672735D03*
X80060800Y-40167282D03*
X80060800Y-42661829D03*
X80060800Y-45156376D03*
X80060800Y-47650923D03*
X80060800Y-50145470D03*
X80060800Y-52640017D03*
X80060800Y-55134564D03*
X80060800Y-57629111D03*
X80060800Y-60123658D03*
X80060800Y-62618205D03*
X80060800Y-65112752D03*
X80060800Y-67607299D03*
X80060800Y-70101846D03*
X80060800Y-72596400D03*
X104140000Y-72542400D03*
X104140000Y-70047846D03*
X104140000Y-67553299D03*
X104140000Y-65058752D03*
X104140000Y-62564205D03*
X104140000Y-60069658D03*
X104140000Y-57575111D03*
X104140000Y-55080564D03*
X104140000Y-52586017D03*
X104140000Y-50091470D03*
X104140000Y-47596923D03*
X104140000Y-45102376D03*
X104140000Y-42607829D03*
X104140000Y-40113282D03*
X104140000Y-37618735D03*
X104140000Y-35124188D03*
X104140000Y-32629641D03*
X104140000Y-30135094D03*
X104140000Y-27640547D03*
X104140000Y-25146000D03*
%TD*%
D11*
%TO.C,D2*%
X53975000Y-119350000D03*
D12*
X53975000Y-109190000D03*
%TD*%
D13*
%TO.C,SW2*%
X62865000Y-86995000D03*
D14*
X67945000Y-86995000D03*
D13*
X73025000Y-86995000D03*
D15*
X70485000Y-81915000D03*
X64135000Y-84455000D03*
%TD*%
D13*
%TO.C,SW9*%
X125095000Y-111125000D03*
X114935000Y-111125000D03*
D14*
X120015000Y-111125000D03*
D15*
X122555000Y-106045000D03*
X116205000Y-108585000D03*
%TD*%
D13*
%TO.C,SW3*%
X73025000Y-111125000D03*
X62865000Y-111125000D03*
D14*
X67945000Y-111125000D03*
D15*
X70485000Y-106045000D03*
X64135000Y-108585000D03*
%TD*%
D14*
%TO.C,SW10*%
X120015000Y-136525000D03*
D13*
X125095000Y-136525000D03*
X114935000Y-136525000D03*
D15*
X122555000Y-131445000D03*
X116205000Y-133985000D03*
%TD*%
D13*
%TO.C,SW6*%
X89535000Y-111125000D03*
X99695000Y-111125000D03*
D14*
X94615000Y-111125000D03*
D15*
X97155000Y-106045000D03*
X90805000Y-108585000D03*
%TD*%
D16*
%TO.C,R3*%
X123190000Y-153969453D03*
D17*
X130810000Y-153969453D03*
%TD*%
D14*
%TO.C,SW5*%
X94615000Y-86995000D03*
D13*
X89535000Y-86995000D03*
X99695000Y-86995000D03*
D15*
X97155000Y-81915000D03*
X90805000Y-84455000D03*
%TD*%
D11*
%TO.C,D3*%
X53975000Y-144750000D03*
D12*
X53975000Y-134590000D03*
%TD*%
M02*
