%TF.GenerationSoftware,KiCad,Pcbnew,(6.0.2)*%
%TF.CreationDate,2022-03-12T10:34:22-05:00*%
%TF.ProjectId,macropad,6d616372-6f70-4616-942e-6b696361645f,v0*%
%TF.SameCoordinates,Original*%
%TF.FileFunction,Legend,Top*%
%TF.FilePolarity,Positive*%
%FSLAX46Y46*%
G04 Gerber Fmt 4.6, Leading zero omitted, Abs format (unit mm)*
G04 Created by KiCad (PCBNEW (6.0.2)) date 2022-03-12 10:34:22*
%MOMM*%
%LPD*%
G01*
G04 APERTURE LIST*
%ADD10C,0.150000*%
%ADD11C,0.120000*%
G04 APERTURE END LIST*
D10*
%TO.C,REF\u002A\u002A*%
X137096666Y-155702380D02*
X136763333Y-155226190D01*
X136525238Y-155702380D02*
X136525238Y-154702380D01*
X136906190Y-154702380D01*
X137001428Y-154750000D01*
X137049047Y-154797619D01*
X137096666Y-154892857D01*
X137096666Y-155035714D01*
X137049047Y-155130952D01*
X137001428Y-155178571D01*
X136906190Y-155226190D01*
X136525238Y-155226190D01*
X137525238Y-155178571D02*
X137858571Y-155178571D01*
X138001428Y-155702380D02*
X137525238Y-155702380D01*
X137525238Y-154702380D01*
X138001428Y-154702380D01*
X138763333Y-155178571D02*
X138430000Y-155178571D01*
X138430000Y-155702380D02*
X138430000Y-154702380D01*
X138906190Y-154702380D01*
X139430000Y-154702380D02*
X139430000Y-154940476D01*
X139191904Y-154845238D02*
X139430000Y-154940476D01*
X139668095Y-154845238D01*
X139287142Y-155130952D02*
X139430000Y-154940476D01*
X139572857Y-155130952D01*
X140191904Y-154702380D02*
X140191904Y-154940476D01*
X139953809Y-154845238D02*
X140191904Y-154940476D01*
X140430000Y-154845238D01*
X140049047Y-155130952D02*
X140191904Y-154940476D01*
X140334761Y-155130952D01*
X41846666Y-155702380D02*
X41513333Y-155226190D01*
X41275238Y-155702380D02*
X41275238Y-154702380D01*
X41656190Y-154702380D01*
X41751428Y-154750000D01*
X41799047Y-154797619D01*
X41846666Y-154892857D01*
X41846666Y-155035714D01*
X41799047Y-155130952D01*
X41751428Y-155178571D01*
X41656190Y-155226190D01*
X41275238Y-155226190D01*
X42275238Y-155178571D02*
X42608571Y-155178571D01*
X42751428Y-155702380D02*
X42275238Y-155702380D01*
X42275238Y-154702380D01*
X42751428Y-154702380D01*
X43513333Y-155178571D02*
X43180000Y-155178571D01*
X43180000Y-155702380D02*
X43180000Y-154702380D01*
X43656190Y-154702380D01*
X44180000Y-154702380D02*
X44180000Y-154940476D01*
X43941904Y-154845238D02*
X44180000Y-154940476D01*
X44418095Y-154845238D01*
X44037142Y-155130952D02*
X44180000Y-154940476D01*
X44322857Y-155130952D01*
X44941904Y-154702380D02*
X44941904Y-154940476D01*
X44703809Y-154845238D02*
X44941904Y-154940476D01*
X45180000Y-154845238D01*
X44799047Y-155130952D02*
X44941904Y-154940476D01*
X45084761Y-155130952D01*
X44386666Y-24892380D02*
X44053333Y-24416190D01*
X43815238Y-24892380D02*
X43815238Y-23892380D01*
X44196190Y-23892380D01*
X44291428Y-23940000D01*
X44339047Y-23987619D01*
X44386666Y-24082857D01*
X44386666Y-24225714D01*
X44339047Y-24320952D01*
X44291428Y-24368571D01*
X44196190Y-24416190D01*
X43815238Y-24416190D01*
X44815238Y-24368571D02*
X45148571Y-24368571D01*
X45291428Y-24892380D02*
X44815238Y-24892380D01*
X44815238Y-23892380D01*
X45291428Y-23892380D01*
X46053333Y-24368571D02*
X45720000Y-24368571D01*
X45720000Y-24892380D02*
X45720000Y-23892380D01*
X46196190Y-23892380D01*
X46720000Y-23892380D02*
X46720000Y-24130476D01*
X46481904Y-24035238D02*
X46720000Y-24130476D01*
X46958095Y-24035238D01*
X46577142Y-24320952D02*
X46720000Y-24130476D01*
X46862857Y-24320952D01*
X47481904Y-23892380D02*
X47481904Y-24130476D01*
X47243809Y-24035238D02*
X47481904Y-24130476D01*
X47720000Y-24035238D01*
X47339047Y-24320952D02*
X47481904Y-24130476D01*
X47624761Y-24320952D01*
X137096666Y-26162380D02*
X136763333Y-25686190D01*
X136525238Y-26162380D02*
X136525238Y-25162380D01*
X136906190Y-25162380D01*
X137001428Y-25210000D01*
X137049047Y-25257619D01*
X137096666Y-25352857D01*
X137096666Y-25495714D01*
X137049047Y-25590952D01*
X137001428Y-25638571D01*
X136906190Y-25686190D01*
X136525238Y-25686190D01*
X137525238Y-25638571D02*
X137858571Y-25638571D01*
X138001428Y-26162380D02*
X137525238Y-26162380D01*
X137525238Y-25162380D01*
X138001428Y-25162380D01*
X138763333Y-25638571D02*
X138430000Y-25638571D01*
X138430000Y-26162380D02*
X138430000Y-25162380D01*
X138906190Y-25162380D01*
X139430000Y-25162380D02*
X139430000Y-25400476D01*
X139191904Y-25305238D02*
X139430000Y-25400476D01*
X139668095Y-25305238D01*
X139287142Y-25590952D02*
X139430000Y-25400476D01*
X139572857Y-25590952D01*
X140191904Y-25162380D02*
X140191904Y-25400476D01*
X139953809Y-25305238D02*
X140191904Y-25400476D01*
X140430000Y-25305238D01*
X140049047Y-25590952D02*
X140191904Y-25400476D01*
X140334761Y-25590952D01*
%TO.C,D6*%
X78557380Y-139803095D02*
X77557380Y-139803095D01*
X77557380Y-139565000D01*
X77605000Y-139422142D01*
X77700238Y-139326904D01*
X77795476Y-139279285D01*
X77985952Y-139231666D01*
X78128809Y-139231666D01*
X78319285Y-139279285D01*
X78414523Y-139326904D01*
X78509761Y-139422142D01*
X78557380Y-139565000D01*
X78557380Y-139803095D01*
X77557380Y-138374523D02*
X77557380Y-138565000D01*
X77605000Y-138660238D01*
X77652619Y-138707857D01*
X77795476Y-138803095D01*
X77985952Y-138850714D01*
X78366904Y-138850714D01*
X78462142Y-138803095D01*
X78509761Y-138755476D01*
X78557380Y-138660238D01*
X78557380Y-138469761D01*
X78509761Y-138374523D01*
X78462142Y-138326904D01*
X78366904Y-138279285D01*
X78128809Y-138279285D01*
X78033571Y-138326904D01*
X77985952Y-138374523D01*
X77938333Y-138469761D01*
X77938333Y-138660238D01*
X77985952Y-138755476D01*
X78033571Y-138803095D01*
X78128809Y-138850714D01*
X75822380Y-145011904D02*
X74822380Y-145011904D01*
X75822380Y-144440476D02*
X75250952Y-144869047D01*
X74822380Y-144440476D02*
X75393809Y-145011904D01*
%TO.C,SW4*%
X66611666Y-129055761D02*
X66754523Y-129103380D01*
X66992619Y-129103380D01*
X67087857Y-129055761D01*
X67135476Y-129008142D01*
X67183095Y-128912904D01*
X67183095Y-128817666D01*
X67135476Y-128722428D01*
X67087857Y-128674809D01*
X66992619Y-128627190D01*
X66802142Y-128579571D01*
X66706904Y-128531952D01*
X66659285Y-128484333D01*
X66611666Y-128389095D01*
X66611666Y-128293857D01*
X66659285Y-128198619D01*
X66706904Y-128151000D01*
X66802142Y-128103380D01*
X67040238Y-128103380D01*
X67183095Y-128151000D01*
X67516428Y-128103380D02*
X67754523Y-129103380D01*
X67945000Y-128389095D01*
X68135476Y-129103380D01*
X68373571Y-128103380D01*
X69183095Y-128436714D02*
X69183095Y-129103380D01*
X68945000Y-128055761D02*
X68706904Y-128770047D01*
X69325952Y-128770047D01*
%TO.C,SW7*%
X93281666Y-129055761D02*
X93424523Y-129103380D01*
X93662619Y-129103380D01*
X93757857Y-129055761D01*
X93805476Y-129008142D01*
X93853095Y-128912904D01*
X93853095Y-128817666D01*
X93805476Y-128722428D01*
X93757857Y-128674809D01*
X93662619Y-128627190D01*
X93472142Y-128579571D01*
X93376904Y-128531952D01*
X93329285Y-128484333D01*
X93281666Y-128389095D01*
X93281666Y-128293857D01*
X93329285Y-128198619D01*
X93376904Y-128151000D01*
X93472142Y-128103380D01*
X93710238Y-128103380D01*
X93853095Y-128151000D01*
X94186428Y-128103380D02*
X94424523Y-129103380D01*
X94615000Y-128389095D01*
X94805476Y-129103380D01*
X95043571Y-128103380D01*
X95329285Y-128103380D02*
X95995952Y-128103380D01*
X95567380Y-129103380D01*
%TO.C,D8*%
X105297380Y-115008095D02*
X104297380Y-115008095D01*
X104297380Y-114770000D01*
X104345000Y-114627142D01*
X104440238Y-114531904D01*
X104535476Y-114484285D01*
X104725952Y-114436666D01*
X104868809Y-114436666D01*
X105059285Y-114484285D01*
X105154523Y-114531904D01*
X105249761Y-114627142D01*
X105297380Y-114770000D01*
X105297380Y-115008095D01*
X104725952Y-113865238D02*
X104678333Y-113960476D01*
X104630714Y-114008095D01*
X104535476Y-114055714D01*
X104487857Y-114055714D01*
X104392619Y-114008095D01*
X104345000Y-113960476D01*
X104297380Y-113865238D01*
X104297380Y-113674761D01*
X104345000Y-113579523D01*
X104392619Y-113531904D01*
X104487857Y-113484285D01*
X104535476Y-113484285D01*
X104630714Y-113531904D01*
X104678333Y-113579523D01*
X104725952Y-113674761D01*
X104725952Y-113865238D01*
X104773571Y-113960476D01*
X104821190Y-114008095D01*
X104916428Y-114055714D01*
X105106904Y-114055714D01*
X105202142Y-114008095D01*
X105249761Y-113960476D01*
X105297380Y-113865238D01*
X105297380Y-113674761D01*
X105249761Y-113579523D01*
X105202142Y-113531904D01*
X105106904Y-113484285D01*
X104916428Y-113484285D01*
X104821190Y-113531904D01*
X104773571Y-113579523D01*
X104725952Y-113674761D01*
X105667380Y-119611904D02*
X104667380Y-119611904D01*
X105667380Y-119040476D02*
X105095952Y-119469047D01*
X104667380Y-119040476D02*
X105238809Y-119611904D01*
%TO.C,R1*%
X74128333Y-152051833D02*
X73795000Y-151575643D01*
X73556904Y-152051833D02*
X73556904Y-151051833D01*
X73937857Y-151051833D01*
X74033095Y-151099453D01*
X74080714Y-151147072D01*
X74128333Y-151242310D01*
X74128333Y-151385167D01*
X74080714Y-151480405D01*
X74033095Y-151528024D01*
X73937857Y-151575643D01*
X73556904Y-151575643D01*
X75080714Y-152051833D02*
X74509285Y-152051833D01*
X74795000Y-152051833D02*
X74795000Y-151051833D01*
X74699761Y-151194691D01*
X74604523Y-151289929D01*
X74509285Y-151337548D01*
%TO.C,D1*%
X51957380Y-90878095D02*
X50957380Y-90878095D01*
X50957380Y-90640000D01*
X51005000Y-90497142D01*
X51100238Y-90401904D01*
X51195476Y-90354285D01*
X51385952Y-90306666D01*
X51528809Y-90306666D01*
X51719285Y-90354285D01*
X51814523Y-90401904D01*
X51909761Y-90497142D01*
X51957380Y-90640000D01*
X51957380Y-90878095D01*
X51957380Y-89354285D02*
X51957380Y-89925714D01*
X51957380Y-89640000D02*
X50957380Y-89640000D01*
X51100238Y-89735238D01*
X51195476Y-89830476D01*
X51243095Y-89925714D01*
X52327380Y-95481904D02*
X51327380Y-95481904D01*
X52327380Y-94910476D02*
X51755952Y-95339047D01*
X51327380Y-94910476D02*
X51898809Y-95481904D01*
%TO.C,SW8*%
X118681666Y-79525761D02*
X118824523Y-79573380D01*
X119062619Y-79573380D01*
X119157857Y-79525761D01*
X119205476Y-79478142D01*
X119253095Y-79382904D01*
X119253095Y-79287666D01*
X119205476Y-79192428D01*
X119157857Y-79144809D01*
X119062619Y-79097190D01*
X118872142Y-79049571D01*
X118776904Y-79001952D01*
X118729285Y-78954333D01*
X118681666Y-78859095D01*
X118681666Y-78763857D01*
X118729285Y-78668619D01*
X118776904Y-78621000D01*
X118872142Y-78573380D01*
X119110238Y-78573380D01*
X119253095Y-78621000D01*
X119586428Y-78573380D02*
X119824523Y-79573380D01*
X120015000Y-78859095D01*
X120205476Y-79573380D01*
X120443571Y-78573380D01*
X120967380Y-79001952D02*
X120872142Y-78954333D01*
X120824523Y-78906714D01*
X120776904Y-78811476D01*
X120776904Y-78763857D01*
X120824523Y-78668619D01*
X120872142Y-78621000D01*
X120967380Y-78573380D01*
X121157857Y-78573380D01*
X121253095Y-78621000D01*
X121300714Y-78668619D01*
X121348333Y-78763857D01*
X121348333Y-78811476D01*
X121300714Y-78906714D01*
X121253095Y-78954333D01*
X121157857Y-79001952D01*
X120967380Y-79001952D01*
X120872142Y-79049571D01*
X120824523Y-79097190D01*
X120776904Y-79192428D01*
X120776904Y-79382904D01*
X120824523Y-79478142D01*
X120872142Y-79525761D01*
X120967380Y-79573380D01*
X121157857Y-79573380D01*
X121253095Y-79525761D01*
X121300714Y-79478142D01*
X121348333Y-79382904D01*
X121348333Y-79192428D01*
X121300714Y-79097190D01*
X121253095Y-79049571D01*
X121157857Y-79001952D01*
%TO.C,D4*%
X79827380Y-90878095D02*
X78827380Y-90878095D01*
X78827380Y-90640000D01*
X78875000Y-90497142D01*
X78970238Y-90401904D01*
X79065476Y-90354285D01*
X79255952Y-90306666D01*
X79398809Y-90306666D01*
X79589285Y-90354285D01*
X79684523Y-90401904D01*
X79779761Y-90497142D01*
X79827380Y-90640000D01*
X79827380Y-90878095D01*
X79160714Y-89449523D02*
X79827380Y-89449523D01*
X78779761Y-89687619D02*
X79494047Y-89925714D01*
X79494047Y-89306666D01*
X80267380Y-95481904D02*
X79267380Y-95481904D01*
X80267380Y-94910476D02*
X79695952Y-95339047D01*
X79267380Y-94910476D02*
X79838809Y-95481904D01*
%TO.C,SW1*%
X58361666Y-50149761D02*
X58504523Y-50197380D01*
X58742619Y-50197380D01*
X58837857Y-50149761D01*
X58885476Y-50102142D01*
X58933095Y-50006904D01*
X58933095Y-49911666D01*
X58885476Y-49816428D01*
X58837857Y-49768809D01*
X58742619Y-49721190D01*
X58552142Y-49673571D01*
X58456904Y-49625952D01*
X58409285Y-49578333D01*
X58361666Y-49483095D01*
X58361666Y-49387857D01*
X58409285Y-49292619D01*
X58456904Y-49245000D01*
X58552142Y-49197380D01*
X58790238Y-49197380D01*
X58933095Y-49245000D01*
X59266428Y-49197380D02*
X59504523Y-50197380D01*
X59695000Y-49483095D01*
X59885476Y-50197380D01*
X60123571Y-49197380D01*
X61028333Y-50197380D02*
X60456904Y-50197380D01*
X60742619Y-50197380D02*
X60742619Y-49197380D01*
X60647380Y-49340238D01*
X60552142Y-49435476D01*
X60456904Y-49483095D01*
%TO.C,D5*%
X78557380Y-115008095D02*
X77557380Y-115008095D01*
X77557380Y-114770000D01*
X77605000Y-114627142D01*
X77700238Y-114531904D01*
X77795476Y-114484285D01*
X77985952Y-114436666D01*
X78128809Y-114436666D01*
X78319285Y-114484285D01*
X78414523Y-114531904D01*
X78509761Y-114627142D01*
X78557380Y-114770000D01*
X78557380Y-115008095D01*
X77557380Y-113531904D02*
X77557380Y-114008095D01*
X78033571Y-114055714D01*
X77985952Y-114008095D01*
X77938333Y-113912857D01*
X77938333Y-113674761D01*
X77985952Y-113579523D01*
X78033571Y-113531904D01*
X78128809Y-113484285D01*
X78366904Y-113484285D01*
X78462142Y-113531904D01*
X78509761Y-113579523D01*
X78557380Y-113674761D01*
X78557380Y-113912857D01*
X78509761Y-114008095D01*
X78462142Y-114055714D01*
X75822380Y-119611904D02*
X74822380Y-119611904D01*
X75822380Y-119040476D02*
X75250952Y-119469047D01*
X74822380Y-119040476D02*
X75393809Y-119611904D01*
%TO.C,D7*%
X105297380Y-90878095D02*
X104297380Y-90878095D01*
X104297380Y-90640000D01*
X104345000Y-90497142D01*
X104440238Y-90401904D01*
X104535476Y-90354285D01*
X104725952Y-90306666D01*
X104868809Y-90306666D01*
X105059285Y-90354285D01*
X105154523Y-90401904D01*
X105249761Y-90497142D01*
X105297380Y-90640000D01*
X105297380Y-90878095D01*
X104297380Y-89973333D02*
X104297380Y-89306666D01*
X105297380Y-89735238D01*
X105667380Y-95481904D02*
X104667380Y-95481904D01*
X105667380Y-94910476D02*
X105095952Y-95339047D01*
X104667380Y-94910476D02*
X105238809Y-95481904D01*
%TO.C,R2*%
X100163333Y-152051833D02*
X99830000Y-151575643D01*
X99591904Y-152051833D02*
X99591904Y-151051833D01*
X99972857Y-151051833D01*
X100068095Y-151099453D01*
X100115714Y-151147072D01*
X100163333Y-151242310D01*
X100163333Y-151385167D01*
X100115714Y-151480405D01*
X100068095Y-151528024D01*
X99972857Y-151575643D01*
X99591904Y-151575643D01*
X100544285Y-151147072D02*
X100591904Y-151099453D01*
X100687142Y-151051833D01*
X100925238Y-151051833D01*
X101020476Y-151099453D01*
X101068095Y-151147072D01*
X101115714Y-151242310D01*
X101115714Y-151337548D01*
X101068095Y-151480405D01*
X100496666Y-152051833D01*
X101115714Y-152051833D01*
%TO.C,D9*%
X105297380Y-140408095D02*
X104297380Y-140408095D01*
X104297380Y-140170000D01*
X104345000Y-140027142D01*
X104440238Y-139931904D01*
X104535476Y-139884285D01*
X104725952Y-139836666D01*
X104868809Y-139836666D01*
X105059285Y-139884285D01*
X105154523Y-139931904D01*
X105249761Y-140027142D01*
X105297380Y-140170000D01*
X105297380Y-140408095D01*
X105297380Y-139360476D02*
X105297380Y-139170000D01*
X105249761Y-139074761D01*
X105202142Y-139027142D01*
X105059285Y-138931904D01*
X104868809Y-138884285D01*
X104487857Y-138884285D01*
X104392619Y-138931904D01*
X104345000Y-138979523D01*
X104297380Y-139074761D01*
X104297380Y-139265238D01*
X104345000Y-139360476D01*
X104392619Y-139408095D01*
X104487857Y-139455714D01*
X104725952Y-139455714D01*
X104821190Y-139408095D01*
X104868809Y-139360476D01*
X104916428Y-139265238D01*
X104916428Y-139074761D01*
X104868809Y-138979523D01*
X104821190Y-138931904D01*
X104725952Y-138884285D01*
X105667380Y-145011904D02*
X104667380Y-145011904D01*
X105667380Y-144440476D02*
X105095952Y-144869047D01*
X104667380Y-144440476D02*
X105238809Y-145011904D01*
%TO.C,U1*%
X91313095Y-36763380D02*
X91313095Y-37572904D01*
X91360714Y-37668142D01*
X91408333Y-37715761D01*
X91503571Y-37763380D01*
X91694047Y-37763380D01*
X91789285Y-37715761D01*
X91836904Y-37668142D01*
X91884523Y-37572904D01*
X91884523Y-36763380D01*
X92884523Y-37763380D02*
X92313095Y-37763380D01*
X92598809Y-37763380D02*
X92598809Y-36763380D01*
X92503571Y-36906238D01*
X92408333Y-37001476D01*
X92313095Y-37049095D01*
%TO.C,D2*%
X51957380Y-115008095D02*
X50957380Y-115008095D01*
X50957380Y-114770000D01*
X51005000Y-114627142D01*
X51100238Y-114531904D01*
X51195476Y-114484285D01*
X51385952Y-114436666D01*
X51528809Y-114436666D01*
X51719285Y-114484285D01*
X51814523Y-114531904D01*
X51909761Y-114627142D01*
X51957380Y-114770000D01*
X51957380Y-115008095D01*
X51052619Y-114055714D02*
X51005000Y-114008095D01*
X50957380Y-113912857D01*
X50957380Y-113674761D01*
X51005000Y-113579523D01*
X51052619Y-113531904D01*
X51147857Y-113484285D01*
X51243095Y-113484285D01*
X51385952Y-113531904D01*
X51957380Y-114103333D01*
X51957380Y-113484285D01*
X52327380Y-119611904D02*
X51327380Y-119611904D01*
X52327380Y-119040476D02*
X51755952Y-119469047D01*
X51327380Y-119040476D02*
X51898809Y-119611904D01*
%TO.C,SW2*%
X66611666Y-79525761D02*
X66754523Y-79573380D01*
X66992619Y-79573380D01*
X67087857Y-79525761D01*
X67135476Y-79478142D01*
X67183095Y-79382904D01*
X67183095Y-79287666D01*
X67135476Y-79192428D01*
X67087857Y-79144809D01*
X66992619Y-79097190D01*
X66802142Y-79049571D01*
X66706904Y-79001952D01*
X66659285Y-78954333D01*
X66611666Y-78859095D01*
X66611666Y-78763857D01*
X66659285Y-78668619D01*
X66706904Y-78621000D01*
X66802142Y-78573380D01*
X67040238Y-78573380D01*
X67183095Y-78621000D01*
X67516428Y-78573380D02*
X67754523Y-79573380D01*
X67945000Y-78859095D01*
X68135476Y-79573380D01*
X68373571Y-78573380D01*
X68706904Y-78668619D02*
X68754523Y-78621000D01*
X68849761Y-78573380D01*
X69087857Y-78573380D01*
X69183095Y-78621000D01*
X69230714Y-78668619D01*
X69278333Y-78763857D01*
X69278333Y-78859095D01*
X69230714Y-79001952D01*
X68659285Y-79573380D01*
X69278333Y-79573380D01*
%TO.C,SW9*%
X118681666Y-103655761D02*
X118824523Y-103703380D01*
X119062619Y-103703380D01*
X119157857Y-103655761D01*
X119205476Y-103608142D01*
X119253095Y-103512904D01*
X119253095Y-103417666D01*
X119205476Y-103322428D01*
X119157857Y-103274809D01*
X119062619Y-103227190D01*
X118872142Y-103179571D01*
X118776904Y-103131952D01*
X118729285Y-103084333D01*
X118681666Y-102989095D01*
X118681666Y-102893857D01*
X118729285Y-102798619D01*
X118776904Y-102751000D01*
X118872142Y-102703380D01*
X119110238Y-102703380D01*
X119253095Y-102751000D01*
X119586428Y-102703380D02*
X119824523Y-103703380D01*
X120015000Y-102989095D01*
X120205476Y-103703380D01*
X120443571Y-102703380D01*
X120872142Y-103703380D02*
X121062619Y-103703380D01*
X121157857Y-103655761D01*
X121205476Y-103608142D01*
X121300714Y-103465285D01*
X121348333Y-103274809D01*
X121348333Y-102893857D01*
X121300714Y-102798619D01*
X121253095Y-102751000D01*
X121157857Y-102703380D01*
X120967380Y-102703380D01*
X120872142Y-102751000D01*
X120824523Y-102798619D01*
X120776904Y-102893857D01*
X120776904Y-103131952D01*
X120824523Y-103227190D01*
X120872142Y-103274809D01*
X120967380Y-103322428D01*
X121157857Y-103322428D01*
X121253095Y-103274809D01*
X121300714Y-103227190D01*
X121348333Y-103131952D01*
%TO.C,SW3*%
X66611666Y-103655761D02*
X66754523Y-103703380D01*
X66992619Y-103703380D01*
X67087857Y-103655761D01*
X67135476Y-103608142D01*
X67183095Y-103512904D01*
X67183095Y-103417666D01*
X67135476Y-103322428D01*
X67087857Y-103274809D01*
X66992619Y-103227190D01*
X66802142Y-103179571D01*
X66706904Y-103131952D01*
X66659285Y-103084333D01*
X66611666Y-102989095D01*
X66611666Y-102893857D01*
X66659285Y-102798619D01*
X66706904Y-102751000D01*
X66802142Y-102703380D01*
X67040238Y-102703380D01*
X67183095Y-102751000D01*
X67516428Y-102703380D02*
X67754523Y-103703380D01*
X67945000Y-102989095D01*
X68135476Y-103703380D01*
X68373571Y-102703380D01*
X68659285Y-102703380D02*
X69278333Y-102703380D01*
X68945000Y-103084333D01*
X69087857Y-103084333D01*
X69183095Y-103131952D01*
X69230714Y-103179571D01*
X69278333Y-103274809D01*
X69278333Y-103512904D01*
X69230714Y-103608142D01*
X69183095Y-103655761D01*
X69087857Y-103703380D01*
X68802142Y-103703380D01*
X68706904Y-103655761D01*
X68659285Y-103608142D01*
%TO.C,SW10*%
X118205476Y-129055761D02*
X118348333Y-129103380D01*
X118586428Y-129103380D01*
X118681666Y-129055761D01*
X118729285Y-129008142D01*
X118776904Y-128912904D01*
X118776904Y-128817666D01*
X118729285Y-128722428D01*
X118681666Y-128674809D01*
X118586428Y-128627190D01*
X118395952Y-128579571D01*
X118300714Y-128531952D01*
X118253095Y-128484333D01*
X118205476Y-128389095D01*
X118205476Y-128293857D01*
X118253095Y-128198619D01*
X118300714Y-128151000D01*
X118395952Y-128103380D01*
X118634047Y-128103380D01*
X118776904Y-128151000D01*
X119110238Y-128103380D02*
X119348333Y-129103380D01*
X119538809Y-128389095D01*
X119729285Y-129103380D01*
X119967380Y-128103380D01*
X120872142Y-129103380D02*
X120300714Y-129103380D01*
X120586428Y-129103380D02*
X120586428Y-128103380D01*
X120491190Y-128246238D01*
X120395952Y-128341476D01*
X120300714Y-128389095D01*
X121491190Y-128103380D02*
X121586428Y-128103380D01*
X121681666Y-128151000D01*
X121729285Y-128198619D01*
X121776904Y-128293857D01*
X121824523Y-128484333D01*
X121824523Y-128722428D01*
X121776904Y-128912904D01*
X121729285Y-129008142D01*
X121681666Y-129055761D01*
X121586428Y-129103380D01*
X121491190Y-129103380D01*
X121395952Y-129055761D01*
X121348333Y-129008142D01*
X121300714Y-128912904D01*
X121253095Y-128722428D01*
X121253095Y-128484333D01*
X121300714Y-128293857D01*
X121348333Y-128198619D01*
X121395952Y-128151000D01*
X121491190Y-128103380D01*
%TO.C,SW6*%
X93281666Y-103655761D02*
X93424523Y-103703380D01*
X93662619Y-103703380D01*
X93757857Y-103655761D01*
X93805476Y-103608142D01*
X93853095Y-103512904D01*
X93853095Y-103417666D01*
X93805476Y-103322428D01*
X93757857Y-103274809D01*
X93662619Y-103227190D01*
X93472142Y-103179571D01*
X93376904Y-103131952D01*
X93329285Y-103084333D01*
X93281666Y-102989095D01*
X93281666Y-102893857D01*
X93329285Y-102798619D01*
X93376904Y-102751000D01*
X93472142Y-102703380D01*
X93710238Y-102703380D01*
X93853095Y-102751000D01*
X94186428Y-102703380D02*
X94424523Y-103703380D01*
X94615000Y-102989095D01*
X94805476Y-103703380D01*
X95043571Y-102703380D01*
X95853095Y-102703380D02*
X95662619Y-102703380D01*
X95567380Y-102751000D01*
X95519761Y-102798619D01*
X95424523Y-102941476D01*
X95376904Y-103131952D01*
X95376904Y-103512904D01*
X95424523Y-103608142D01*
X95472142Y-103655761D01*
X95567380Y-103703380D01*
X95757857Y-103703380D01*
X95853095Y-103655761D01*
X95900714Y-103608142D01*
X95948333Y-103512904D01*
X95948333Y-103274809D01*
X95900714Y-103179571D01*
X95853095Y-103131952D01*
X95757857Y-103084333D01*
X95567380Y-103084333D01*
X95472142Y-103131952D01*
X95424523Y-103179571D01*
X95376904Y-103274809D01*
%TO.C,R3*%
X126833333Y-152051833D02*
X126500000Y-151575643D01*
X126261904Y-152051833D02*
X126261904Y-151051833D01*
X126642857Y-151051833D01*
X126738095Y-151099453D01*
X126785714Y-151147072D01*
X126833333Y-151242310D01*
X126833333Y-151385167D01*
X126785714Y-151480405D01*
X126738095Y-151528024D01*
X126642857Y-151575643D01*
X126261904Y-151575643D01*
X127166666Y-151051833D02*
X127785714Y-151051833D01*
X127452380Y-151432786D01*
X127595238Y-151432786D01*
X127690476Y-151480405D01*
X127738095Y-151528024D01*
X127785714Y-151623262D01*
X127785714Y-151861357D01*
X127738095Y-151956595D01*
X127690476Y-152004214D01*
X127595238Y-152051833D01*
X127309523Y-152051833D01*
X127214285Y-152004214D01*
X127166666Y-151956595D01*
%TO.C,SW5*%
X93281666Y-79525761D02*
X93424523Y-79573380D01*
X93662619Y-79573380D01*
X93757857Y-79525761D01*
X93805476Y-79478142D01*
X93853095Y-79382904D01*
X93853095Y-79287666D01*
X93805476Y-79192428D01*
X93757857Y-79144809D01*
X93662619Y-79097190D01*
X93472142Y-79049571D01*
X93376904Y-79001952D01*
X93329285Y-78954333D01*
X93281666Y-78859095D01*
X93281666Y-78763857D01*
X93329285Y-78668619D01*
X93376904Y-78621000D01*
X93472142Y-78573380D01*
X93710238Y-78573380D01*
X93853095Y-78621000D01*
X94186428Y-78573380D02*
X94424523Y-79573380D01*
X94615000Y-78859095D01*
X94805476Y-79573380D01*
X95043571Y-78573380D01*
X95900714Y-78573380D02*
X95424523Y-78573380D01*
X95376904Y-79049571D01*
X95424523Y-79001952D01*
X95519761Y-78954333D01*
X95757857Y-78954333D01*
X95853095Y-79001952D01*
X95900714Y-79049571D01*
X95948333Y-79144809D01*
X95948333Y-79382904D01*
X95900714Y-79478142D01*
X95853095Y-79525761D01*
X95757857Y-79573380D01*
X95519761Y-79573380D01*
X95424523Y-79525761D01*
X95376904Y-79478142D01*
%TO.C,D3*%
X51957380Y-140408095D02*
X50957380Y-140408095D01*
X50957380Y-140170000D01*
X51005000Y-140027142D01*
X51100238Y-139931904D01*
X51195476Y-139884285D01*
X51385952Y-139836666D01*
X51528809Y-139836666D01*
X51719285Y-139884285D01*
X51814523Y-139931904D01*
X51909761Y-140027142D01*
X51957380Y-140170000D01*
X51957380Y-140408095D01*
X50957380Y-139503333D02*
X50957380Y-138884285D01*
X51338333Y-139217619D01*
X51338333Y-139074761D01*
X51385952Y-138979523D01*
X51433571Y-138931904D01*
X51528809Y-138884285D01*
X51766904Y-138884285D01*
X51862142Y-138931904D01*
X51909761Y-138979523D01*
X51957380Y-139074761D01*
X51957380Y-139360476D01*
X51909761Y-139455714D01*
X51862142Y-139503333D01*
X52327380Y-145011904D02*
X51327380Y-145011904D01*
X52327380Y-144440476D02*
X51755952Y-144869047D01*
X51327380Y-144440476D02*
X51898809Y-145011904D01*
D11*
%TO.C,D6*%
X79175000Y-141490000D02*
X82115000Y-141490000D01*
X82115000Y-142390000D02*
X82115000Y-136950000D01*
X82115000Y-136950000D02*
X79175000Y-136950000D01*
X79175000Y-136950000D02*
X79175000Y-142390000D01*
X79175000Y-142390000D02*
X82115000Y-142390000D01*
X79175000Y-141610000D02*
X82115000Y-141610000D01*
X79175000Y-141370000D02*
X82115000Y-141370000D01*
X80645000Y-135930000D02*
X80645000Y-136950000D01*
X80645000Y-143410000D02*
X80645000Y-142390000D01*
%TO.C,SW4*%
X60960000Y-129540000D02*
X74930000Y-129540000D01*
X74930000Y-143510000D02*
X60960000Y-143510000D01*
X74930000Y-129540000D02*
X74930000Y-143510000D01*
X60960000Y-143510000D02*
X60960000Y-129540000D01*
%TO.C,SW7*%
X87630000Y-129540000D02*
X101600000Y-129540000D01*
X101600000Y-143510000D02*
X87630000Y-143510000D01*
X101600000Y-129540000D02*
X101600000Y-143510000D01*
X87630000Y-143510000D02*
X87630000Y-129540000D01*
%TO.C,D8*%
X107315000Y-118010000D02*
X107315000Y-116990000D01*
X105845000Y-115970000D02*
X108785000Y-115970000D01*
X108785000Y-116990000D02*
X108785000Y-111550000D01*
X105845000Y-116210000D02*
X108785000Y-116210000D01*
X105845000Y-111550000D02*
X105845000Y-116990000D01*
X105845000Y-116990000D02*
X108785000Y-116990000D01*
X107315000Y-110530000D02*
X107315000Y-111550000D01*
X108785000Y-111550000D02*
X105845000Y-111550000D01*
X105845000Y-116090000D02*
X108785000Y-116090000D01*
%TO.C,R1*%
X71025000Y-152929453D02*
X71025000Y-152599453D01*
X71025000Y-155339453D02*
X77565000Y-155339453D01*
X77565000Y-152599453D02*
X77565000Y-152929453D01*
X71025000Y-155009453D02*
X71025000Y-155339453D01*
X77565000Y-155339453D02*
X77565000Y-155009453D01*
X71025000Y-152599453D02*
X77565000Y-152599453D01*
%TO.C,D1*%
X53975000Y-93880000D02*
X53975000Y-92860000D01*
X52505000Y-91960000D02*
X55445000Y-91960000D01*
X52505000Y-91840000D02*
X55445000Y-91840000D01*
X55445000Y-92860000D02*
X55445000Y-87420000D01*
X52505000Y-92080000D02*
X55445000Y-92080000D01*
X52505000Y-87420000D02*
X52505000Y-92860000D01*
X55445000Y-87420000D02*
X52505000Y-87420000D01*
X53975000Y-86400000D02*
X53975000Y-87420000D01*
X52505000Y-92860000D02*
X55445000Y-92860000D01*
%TO.C,SW8*%
X127000000Y-80010000D02*
X127000000Y-93980000D01*
X127000000Y-93980000D02*
X113030000Y-93980000D01*
X113030000Y-93980000D02*
X113030000Y-80010000D01*
X113030000Y-80010000D02*
X127000000Y-80010000D01*
%TO.C,D4*%
X83385000Y-92860000D02*
X83385000Y-87420000D01*
X81915000Y-93880000D02*
X81915000Y-92860000D01*
X80445000Y-91840000D02*
X83385000Y-91840000D01*
X80445000Y-92860000D02*
X83385000Y-92860000D01*
X81915000Y-86400000D02*
X81915000Y-87420000D01*
X80445000Y-92080000D02*
X83385000Y-92080000D01*
X83385000Y-87420000D02*
X80445000Y-87420000D01*
X80445000Y-91960000D02*
X83385000Y-91960000D01*
X80445000Y-87420000D02*
X80445000Y-92860000D01*
%TO.C,SW1*%
X48895000Y-43845000D02*
X48895000Y-41245000D01*
X48895000Y-48445000D02*
X48895000Y-46045000D01*
X48895000Y-39045000D02*
X48895000Y-36645000D01*
X62195000Y-46645000D02*
X62495000Y-46345000D01*
X56995000Y-48445000D02*
X61095000Y-48445000D01*
X55495000Y-42545000D02*
X54495000Y-42545000D01*
X56995000Y-36645000D02*
X61095000Y-36645000D01*
X48895000Y-36645000D02*
X52995000Y-36645000D01*
X61095000Y-48445000D02*
X61095000Y-36645000D01*
X52995000Y-48445000D02*
X48895000Y-48445000D01*
X62795000Y-46645000D02*
X62195000Y-46645000D01*
X54995000Y-43045000D02*
X54995000Y-42045000D01*
X62495000Y-46345000D02*
X62795000Y-46645000D01*
X57995000Y-42545000D02*
G75*
G03*
X57995000Y-42545000I-3000000J0D01*
G01*
%TO.C,D5*%
X82115000Y-116990000D02*
X82115000Y-111550000D01*
X80645000Y-118010000D02*
X80645000Y-116990000D01*
X79175000Y-115970000D02*
X82115000Y-115970000D01*
X79175000Y-111550000D02*
X79175000Y-116990000D01*
X82115000Y-111550000D02*
X79175000Y-111550000D01*
X79175000Y-116090000D02*
X82115000Y-116090000D01*
X79175000Y-116210000D02*
X82115000Y-116210000D01*
X80645000Y-110530000D02*
X80645000Y-111550000D01*
X79175000Y-116990000D02*
X82115000Y-116990000D01*
%TO.C,D7*%
X105845000Y-92080000D02*
X108785000Y-92080000D01*
X105845000Y-91840000D02*
X108785000Y-91840000D01*
X105845000Y-92860000D02*
X108785000Y-92860000D01*
X108785000Y-87420000D02*
X105845000Y-87420000D01*
X105845000Y-87420000D02*
X105845000Y-92860000D01*
X108785000Y-92860000D02*
X108785000Y-87420000D01*
X107315000Y-93880000D02*
X107315000Y-92860000D01*
X105845000Y-91960000D02*
X108785000Y-91960000D01*
X107315000Y-86400000D02*
X107315000Y-87420000D01*
%TO.C,R2*%
X97060000Y-152929453D02*
X97060000Y-152599453D01*
X97060000Y-155339453D02*
X103600000Y-155339453D01*
X103600000Y-155339453D02*
X103600000Y-155009453D01*
X103600000Y-152599453D02*
X103600000Y-152929453D01*
X97060000Y-155009453D02*
X97060000Y-155339453D01*
X97060000Y-152599453D02*
X103600000Y-152599453D01*
%TO.C,D9*%
X105845000Y-141490000D02*
X108785000Y-141490000D01*
X105845000Y-141370000D02*
X108785000Y-141370000D01*
X108785000Y-142390000D02*
X108785000Y-136950000D01*
X105845000Y-141610000D02*
X108785000Y-141610000D01*
X108785000Y-136950000D02*
X105845000Y-136950000D01*
X105845000Y-142390000D02*
X108785000Y-142390000D01*
X107315000Y-143410000D02*
X107315000Y-142390000D01*
X105845000Y-136950000D02*
X105845000Y-142390000D01*
X107315000Y-135930000D02*
X107315000Y-136950000D01*
%TO.C,U1*%
X81575000Y-23395000D02*
X102575000Y-23395000D01*
X102575000Y-23395000D02*
X102575000Y-74395000D01*
X102575000Y-74395000D02*
X81575000Y-74395000D01*
X81575000Y-74395000D02*
X81575000Y-23395000D01*
%TO.C,D2*%
X52505000Y-116990000D02*
X55445000Y-116990000D01*
X53975000Y-118010000D02*
X53975000Y-116990000D01*
X52505000Y-115970000D02*
X55445000Y-115970000D01*
X55445000Y-111550000D02*
X52505000Y-111550000D01*
X52505000Y-111550000D02*
X52505000Y-116990000D01*
X53975000Y-110530000D02*
X53975000Y-111550000D01*
X52505000Y-116090000D02*
X55445000Y-116090000D01*
X52505000Y-116210000D02*
X55445000Y-116210000D01*
X55445000Y-116990000D02*
X55445000Y-111550000D01*
%TO.C,SW2*%
X60960000Y-80010000D02*
X74930000Y-80010000D01*
X74930000Y-93980000D02*
X60960000Y-93980000D01*
X60960000Y-93980000D02*
X60960000Y-80010000D01*
X74930000Y-80010000D02*
X74930000Y-93980000D01*
%TO.C,SW9*%
X113030000Y-118110000D02*
X113030000Y-104140000D01*
X113030000Y-104140000D02*
X127000000Y-104140000D01*
X127000000Y-104140000D02*
X127000000Y-118110000D01*
X127000000Y-118110000D02*
X113030000Y-118110000D01*
%TO.C,SW3*%
X74930000Y-118110000D02*
X60960000Y-118110000D01*
X60960000Y-118110000D02*
X60960000Y-104140000D01*
X60960000Y-104140000D02*
X74930000Y-104140000D01*
X74930000Y-104140000D02*
X74930000Y-118110000D01*
%TO.C,SW10*%
X113030000Y-143510000D02*
X113030000Y-129540000D01*
X113030000Y-129540000D02*
X127000000Y-129540000D01*
X127000000Y-143510000D02*
X113030000Y-143510000D01*
X127000000Y-129540000D02*
X127000000Y-143510000D01*
%TO.C,SW6*%
X101600000Y-104140000D02*
X101600000Y-118110000D01*
X101600000Y-118110000D02*
X87630000Y-118110000D01*
X87630000Y-118110000D02*
X87630000Y-104140000D01*
X87630000Y-104140000D02*
X101600000Y-104140000D01*
%TO.C,R3*%
X123730000Y-152599453D02*
X130270000Y-152599453D01*
X123730000Y-155009453D02*
X123730000Y-155339453D01*
X123730000Y-155339453D02*
X130270000Y-155339453D01*
X130270000Y-152599453D02*
X130270000Y-152929453D01*
X130270000Y-155339453D02*
X130270000Y-155009453D01*
X123730000Y-152929453D02*
X123730000Y-152599453D01*
%TO.C,SW5*%
X87630000Y-80010000D02*
X101600000Y-80010000D01*
X87630000Y-93980000D02*
X87630000Y-80010000D01*
X101600000Y-80010000D02*
X101600000Y-93980000D01*
X101600000Y-93980000D02*
X87630000Y-93980000D01*
%TO.C,D3*%
X55445000Y-136950000D02*
X52505000Y-136950000D01*
X52505000Y-141610000D02*
X55445000Y-141610000D01*
X55445000Y-142390000D02*
X55445000Y-136950000D01*
X52505000Y-142390000D02*
X55445000Y-142390000D01*
X52505000Y-136950000D02*
X52505000Y-142390000D01*
X53975000Y-143410000D02*
X53975000Y-142390000D01*
X52505000Y-141370000D02*
X55445000Y-141370000D01*
X53975000Y-135930000D02*
X53975000Y-136950000D01*
X52505000Y-141490000D02*
X55445000Y-141490000D01*
%TD*%
M02*
